<?xml version="1.0" encoding="utf-8"?>
<!-- Generator: Adobe Illustrator 19.0.0, SVG Export Plug-In . SVG Version: 6.00 Build 0)  -->
<svg version="1.1" id="Layer_1" xmlns="http://www.w3.org/2000/svg" xmlns:xlink="http://www.w3.org/1999/xlink" x="0px" y="0px"
	 viewBox="0 0 476.4 476.4" style="enable-background:new 0 0 476.4 476.4;" xml:space="preserve">
<style type="text/css">
	.st0{fill-rule:evenodd;clip-rule:evenodd;fill:#0F9DD1;}
	.st1{fill-rule:evenodd;clip-rule:evenodd;fill:#FFFFFF;}
</style>
<path class="st0" d="M94.5,0h287.5c52,0,94.5,42.5,94.5,94.5v287.5c0,52-42.5,94.5-94.5,94.5H94.5c-52,0-94.5-42.5-94.5-94.5V94.5
	C0,42.5,42.5,0,94.5,0L94.5,0z"/>
<path class="st1" d="M393.9,204.6l56.4-0.2c-52.8,70.8-119,190.1-237.1,186.7c-85-2.5-154-69-154-154s69-154,154-154
	c60.6,0,115.3,35.5,140.3,90.4l7.2,15.9h-56.5c-53.4-91.5-199.3-67.4-196.9,47.4c1.1,53.4,52.8,110.1,108.4,108
	C302.2,341.5,350.5,259.3,393.9,204.6L393.9,204.6z"/>
</svg>
